<svg width="512" height="512" viewBox="0 0 512 512" fill="none" xmlns="http://www.w3.org/2000/svg">
<rect width="512" height="512" rx="100" fill="#E9ECEF"/>
<path d="M242.2 405.975C197.433 405.975 166.975 390.675 150.825 360.075C121.642 384.442 100.817 396.625 88.35 396.625C82.4 396.625 77.725 393.792 74.325 388.125C71.2083 382.458 69.65 376.083 69.65 369C69.65 352 76.1667 332.167 89.2 309.5C94.8667 299.583 101.1 290.517 107.9 282.3C114.7 274.083 122.35 269.975 130.85 269.975C139.067 269.975 145.3 276.775 149.55 290.375L162.3 331.175C166.833 326.358 171.792 320.55 177.175 313.75C182.842 306.667 189.075 298.45 195.875 289.1L233.7 238.1C280.167 177.75 310.625 144.742 325.075 139.075C330.175 137.092 335.275 136.1 340.375 136.1C346.042 136.1 350.575 137.375 353.975 139.925C357.658 142.192 359.5 144.883 359.5 148C359.5 153.1 355.392 156.075 347.175 156.925C338.675 161.742 322.1 176.05 297.45 199.85C286.117 210.9 276.908 220.108 269.825 227.475C263.025 234.558 258.35 239.942 255.8 243.625C224.067 287.825 194.742 321.825 167.825 345.625C185.108 379.908 211.033 397.05 245.6 397.05C258.633 397.05 271.808 394.217 285.125 388.55C298.725 383.167 311.192 375.942 322.525 366.875C334.142 357.808 343.492 347.75 350.575 336.7C357.658 325.367 361.2 314.175 361.2 303.125C361.2 291.508 357.092 281.025 348.875 271.675C340.658 262.325 330.6 255.667 318.7 251.7C318.7 251.7 316.575 251.417 312.325 250.85C308.075 250.283 301.558 249.433 292.775 248.3C279.458 246.6 272.8 243.908 272.8 240.225C272.8 237.675 274.358 235.408 277.475 233.425C280.875 231.442 284.275 230.45 287.675 230.45C290.225 230.45 293.2 231.017 296.6 232.15C300 233.283 302.975 234.417 305.525 235.55C308.358 236.4 309.775 236.825 309.775 236.825C312.042 237.108 314.592 237.392 317.425 237.675C320.258 237.675 323.092 237.675 325.925 237.675C344.625 237.675 361.625 234.7 376.925 228.75C391.658 222.8 402.425 214.583 409.225 204.1C416.025 193.617 419.425 181.433 419.425 167.55C419.425 153.383 414.892 142.192 405.825 133.975C397.042 125.758 385.283 119.95 370.55 116.55C356.1 112.867 340.375 111.025 323.375 111.025C290.225 111.025 258.633 115.842 228.6 125.475C198.85 135.108 173.067 151.117 151.25 173.5C134.533 190.783 126.175 205.233 126.175 216.85C126.175 225.067 128.3 232.008 132.55 237.675C133.683 239.092 134.958 240.508 136.375 241.925C137.792 243.342 139.492 244.758 141.475 246.175C142.892 247.025 142.042 247.45 138.925 247.45C121.358 243.483 112.575 231.725 112.575 212.175C112.575 192.625 122.492 174.208 142.325 156.925C157.625 143.608 175.05 132.842 194.6 124.625C214.433 116.408 235.258 110.458 257.075 106.775C279.175 103.092 300.992 101.25 322.525 101.25C337.825 101.25 352.558 102.383 366.725 104.65C380.892 106.917 393.642 110.742 404.975 116.125C416.308 121.225 425.233 128.025 431.75 136.525C438.55 145.025 441.95 155.508 441.95 167.975C441.95 185.542 437.275 199.567 427.925 210.05C418.575 220.533 405.967 228.608 390.1 234.275C371.4 240.792 351.283 244.192 329.75 244.475C341.65 245.042 351.992 248.158 360.775 253.825C369.842 259.492 376.783 266.858 381.6 275.925C386.7 284.992 389.25 294.908 389.25 305.675C389.25 320.125 384.858 333.583 376.075 346.05C367.575 358.233 356.1 368.858 341.65 377.925C327.2 386.708 311.333 393.508 294.05 398.325C276.767 403.425 259.483 405.975 242.2 405.975ZM93.875 386.85C102.942 386.85 120.367 373.958 146.15 348.175L144.875 346.475C133.542 308.792 124.475 289.95 117.675 289.95C117.392 289.95 116.683 290.233 115.55 290.8C94.5833 321.117 84.1 345.483 84.1 363.9C84.1 367.867 84.8083 372.683 86.225 378.35C87.925 384.017 90.475 386.85 93.875 386.85Z" fill="#CC0808"/>
</svg>
